<svg width="80" height="80" viewBox="0 0 80 80" fill="none" xmlns="http://www.w3.org/2000/svg">
<circle cx="40" cy="40" r="40" fill="#7F977B" fill-opacity="0.2"/>
<path d="M7.53931 75.2H53.3538C55.158 75.2 56.6263 73.7307 56.6263 71.925V55.55C56.6263 55.5282 56.6153 55.5107 56.6132 55.4889C56.7332 55.4125 56.8575 55.3404 56.9753 55.2597L74.3979 72.6958C74.4984 72.8002 74.6186 72.8835 74.7516 72.9409C74.8846 72.9983 75.0277 73.0286 75.1726 73.03C75.3174 73.0315 75.4611 73.0041 75.5952 72.9494C75.7293 72.8947 75.8512 72.8138 75.9538 72.7114C76.0564 72.6091 76.1375 72.4873 76.1926 72.3533C76.2476 72.2192 76.2754 72.0755 76.2744 71.9305C76.2733 71.7856 76.2434 71.6423 76.1864 71.509C76.1295 71.3758 76.0465 71.2552 75.9425 71.1543L58.6792 53.8776C60.0958 52.5549 61.2255 50.9548 61.9982 49.1767C62.771 47.3987 63.1702 45.4806 63.1712 43.5417C63.1691 41.1593 62.5671 38.8158 61.4209 36.7277C60.2747 34.6395 58.6212 32.8741 56.6132 31.5945C56.6153 31.5727 56.6263 31.5552 56.6263 31.5334V26.075C56.6263 26.0379 56.6088 26.0074 56.6066 25.9724C56.6023 25.9222 56.5892 25.8785 56.5783 25.8305C56.544 25.6788 56.477 25.5365 56.3819 25.4135C56.3666 25.3938 56.3688 25.3698 56.3535 25.3502L38.9004 5.70017C38.8939 5.69362 38.8851 5.69362 38.8786 5.68707C38.7457 5.54746 38.5776 5.44638 38.3921 5.39451C38.3506 5.38141 38.3136 5.37704 38.2699 5.37049C38.2067 5.35957 38.1477 5.33337 38.0823 5.33337H7.53931C5.73509 5.33337 4.26685 6.80276 4.26685 8.60837V71.925C4.26685 73.7307 5.73509 75.2 7.53931 75.2ZM60.9895 43.5417C60.9895 50.1638 55.6052 55.55 48.9905 55.55C42.3758 55.55 36.9915 50.1638 36.9915 43.5417C36.9915 36.9197 42.3758 31.5334 48.9905 31.5334C55.6052 31.5334 60.9895 36.9197 60.9895 43.5417ZM39.1731 9.29612L53.1073 24.9834H40.2639C39.784 24.9834 39.1731 24.0664 39.1731 23.3459V9.29612ZM6.44849 8.60837C6.44849 8.31885 6.56341 8.04118 6.76798 7.83645C6.97255 7.63172 7.25001 7.51671 7.53931 7.51671H36.9915V23.3459C36.9915 25.1122 38.4205 27.1667 40.2639 27.1667H54.4446V30.4439C51.8095 29.3407 48.9021 29.063 46.106 29.6473C43.3099 30.2316 40.7565 31.6504 38.7826 33.7167H16.2659C15.9766 33.7167 15.6991 33.8317 15.4946 34.0364C15.29 34.2412 15.1751 34.5188 15.1751 34.8084C15.1751 35.0979 15.29 35.3756 15.4946 35.5803C15.6991 35.785 15.9766 35.9 16.2659 35.9H37.0613C35.797 37.8668 35.0426 40.1181 34.8666 42.45H16.2659C15.9766 42.45 15.6991 42.5651 15.4946 42.7698C15.29 42.9745 15.1751 43.2522 15.1751 43.5417C15.1751 43.8312 15.29 44.1089 15.4946 44.3136C15.6991 44.5184 15.9766 44.6334 16.2659 44.6334H34.8644C35.0415 46.9651 35.7958 49.2161 37.0591 51.1834H16.2659C15.9766 51.1834 15.6991 51.2984 15.4946 51.5031C15.29 51.7078 15.1751 51.9855 15.1751 52.275C15.1751 52.5646 15.29 52.8422 15.4946 53.047C15.6991 53.2517 15.9766 53.3667 16.2659 53.3667H38.6277C38.6735 53.3667 38.7128 53.3471 38.7586 53.3405C40.7318 55.4155 43.2881 56.8417 46.0892 57.4305C48.8904 58.0192 51.8041 57.7426 54.4446 56.6373V71.925C54.4446 72.2146 54.3297 72.4922 54.1251 72.697C53.9206 72.9017 53.6431 73.0167 53.3538 73.0167H7.53931C6.92845 73.0167 6.44849 72.5364 6.44849 71.925V8.60837Z" fill="#7F977B"/>
<path d="M16.2668 27.1668H29.3567C29.646 27.1668 29.9235 27.0518 30.128 26.8471C30.3326 26.6423 30.4475 26.3647 30.4475 26.0751C30.4475 25.7856 30.3326 25.5079 30.128 25.3032C29.9235 25.0985 29.646 24.9835 29.3567 24.9835H16.2668C15.9775 24.9835 15.7001 25.0985 15.4955 25.3032C15.291 25.5079 15.176 25.7856 15.176 26.0751C15.176 26.3647 15.291 26.6423 15.4955 26.8471C15.7001 27.0518 15.9775 27.1668 16.2668 27.1668Z" fill="#7F977B"/>
<path d="M16.2668 62.1001H44.6282C44.9175 62.1001 45.195 61.9851 45.3995 61.7803C45.6041 61.5756 45.719 61.2979 45.719 61.0084C45.719 60.7189 45.6041 60.4412 45.3995 60.2365C45.195 60.0318 44.9175 59.9167 44.6282 59.9167H16.2668C15.9775 59.9167 15.7001 60.0318 15.4955 60.2365C15.291 60.4412 15.176 60.7189 15.176 61.0084C15.176 61.2979 15.291 61.5756 15.4955 61.7803C15.7001 61.9851 15.9775 62.1001 16.2668 62.1001Z" fill="#7F977B"/>
</svg>
